<?xml version="1.0" encoding="UTF-8"?>
<svg id="Layer_1" xmlns="http://www.w3.org/2000/svg" version="1.1" viewBox="0 0 600 600">
  <defs>
    <style>
      .st0 {
        fill: #fff;
      }
    </style>
  </defs>
  <path class="st0" d="M394.722,330.524c6.59-11.838,11.028-25.038,12.778-39.074-6.136-9.002-13.374-17.191-21.518-24.378-1.938-19.475-9.032-37.433-19.899-52.487-.67-.928-1.972-1.111-2.874-.406-9.443,7.378-17.63,16.29-24.189,26.358-12.318-3.871-25.424-5.962-39.02-5.962s-26.712,2.092-39.033,5.966c-6.56-10.07-14.748-18.983-24.192-26.362-.902-.705-2.203-.522-2.873.406-10.87,15.058-17.965,33.021-19.9,52.502-8.137,7.183-15.369,15.367-21.501,24.363,1.75,14.036,6.188,27.236,12.778,39.074,8.098-33.143,33.139-59.639,65.423-69.797,4.827-1.519,9.907,1.479,10.9,6.441l5.872,29.359c.441,2.206-.993,4.422-3.177,4.964-28.313,7.024-49.299,32.606-49.299,63.091h0c18.107,13.603,40.612,21.668,65.003,21.668s46.896-8.064,65.003-21.667c0-30.486-20.986-56.068-49.299-63.093-2.184-.542-3.618-2.758-3.176-4.964l5.872-29.359c.992-4.962,6.073-7.96,10.9-6.441,32.284,10.158,57.325,36.654,65.423,69.797ZM314.719,325.951c1.206.283,1.861,1.609,1.362,2.749-3.479,7.962-8.503,15.086-14.69,20.992-.78.744-2.004.744-2.784,0-6.186-5.905-11.211-13.029-14.69-20.992-.498-1.14.156-2.466,1.362-2.749,4.728-1.111,9.655-1.701,14.719-1.701s9.991.59,14.719,1.701Z"/>
  <circle class="st0" cx="260" cy="290.25" r="8"/>
  <circle class="st0" cx="340" cy="290.25" r="8"/>
  <path class="st0" d="M475.859,192.694l-48.52,28.013c1.762,2.824,3.435,5.709,5.01,8.654l47.645-27.508c-.462-1.08-.94-2.151-1.416-3.224l82.018-47.353c-.497-.868-.999-1.733-1.504-2.596l-81.754,47.201c-.489-1.065-.975-2.131-1.478-3.188Z"/>
  <path class="st0" d="M465.655,173.464l-47.308,34.371c2.048,2.627,4.013,5.322,5.887,8.084l46.348-33.674c-.555-1.038-1.126-2.065-1.695-3.095l74.711-54.281c-.585-.812-1.173-1.621-1.765-2.426l-74.424,54.072c-.58-1.02-1.159-2.042-1.753-3.052Z"/>
  <path class="st0" d="M304,150.054V55.85c-.831-.183-1.666-.354-2.5-.528V.01c-.5-.002-.999-.01-1.5-.01s-1,.007-1.5.01v54.704c-.833-.163-1.664-.33-2.5-.486v95.826c1.329-.035,2.662-.054,4-.054s2.671.019,4,.054Z"/>
  <path class="st0" d="M599.981,297h-150.019c.02.998.038,1.997.038,3s-.018,2.002-.038,3h150.019c.012-.999.019-1.998.019-3s-.007-2.001-.019-3Z"/>
  <path class="st0" d="M150,300c0-1.003.018-2.002.038-3H.019c-.012.999-.019,1.999-.019,3s.007,2.001.019,3h150.019c-.02-.998-.038-1.997-.038-3Z"/>
  <path class="st0" d="M124.141,407.306l48.52-28.013c-1.762-2.824-3.435-5.709-5.01-8.654l-47.645,27.508c.462,1.08.94,2.152,1.416,3.224l-82.018,47.353c.497.868.999,1.733,1.504,2.595l81.754-47.201c.489,1.065.975,2.131,1.478,3.188Z"/>
</svg>
